<svg xmlns="http://www.w3.org/2000/svg" xmlns:xlink="http://www.w3.org/1999/xlink" width="500" zoomAndPan="magnify" viewBox="0 0 375 374.999991" height="500" preserveAspectRatio="xMidYMid meet" version="1.2"><defs><clipPath id="49ade38c2f"><path d="M 49.3125 132.203125 L 325.3125 132.203125 L 325.3125 215.453125 L 49.3125 215.453125 Z M 49.3125 132.203125 "/></clipPath></defs><g id="472e09590b"><g clip-rule="nonzero" clip-path="url(#49ade38c2f)"><path style=" stroke:none;fill-rule:nonzero;fill:#000000;fill-opacity:1;" d="M 325.15625 213.589844 C 320.464844 210.746094 315.683594 207.988281 310.988281 205.148438 C 285.34375 190.019531 259.777344 174.976562 234.214844 159.765625 C 231.699219 158.261719 229.769531 157.425781 227.84375 160.601562 C 226.167969 163.363281 223.902344 165.871094 221.558594 168.960938 C 199.511719 157.007812 177.71875 145.308594 156.011719 133.523438 C 153.496094 132.1875 151.738281 132.1875 149.476562 133.859375 C 140.171875 140.546875 130.78125 147.066406 121.480469 153.664062 C 101.109375 167.871094 80.660156 182.078125 60.292969 196.375 C 56.601562 198.964844 53.085938 201.808594 49.480469 204.5625 C 52.164062 204.644531 54.507812 204.144531 56.6875 203.226562 C 72.78125 196.457031 88.957031 190.019531 104.714844 182.496094 C 110.164062 179.910156 117.371094 184.085938 120.804688 177.152344 C 124.414062 180.828125 123.320312 183.421875 120.386719 186.175781 C 117.453125 188.9375 114.941406 192.109375 112.257812 195.121094 C 112.511719 195.453125 112.761719 195.785156 113.015625 196.121094 C 114.019531 195.871094 115.109375 195.785156 116.03125 195.453125 C 121.898438 193.113281 127.765625 190.855469 133.464844 188.265625 C 134.890625 187.597656 136.3125 185.925781 136.984375 184.421875 C 140.335938 176.066406 143.355469 167.625 146.542969 159.183594 C 147.042969 157.84375 147.628906 156.507812 148.554688 154.5 C 153.078125 168.289062 157.265625 181.246094 161.457031 194.117188 C 161.964844 193.949219 162.550781 193.867188 163.050781 193.699219 C 162.128906 181.832031 161.292969 169.960938 160.289062 157.175781 C 171.769531 164.699219 182.414062 171.71875 192.976562 178.652344 C 193.394531 178.320312 193.730469 177.902344 194.148438 177.570312 C 193.144531 175.226562 192.140625 172.972656 191.128906 170.632812 C 196.832031 174.058594 201.945312 177.988281 207.140625 181.914062 C 213.425781 186.675781 213.34375 186.675781 210.074219 193.949219 C 208.734375 196.957031 207.476562 199.964844 206.21875 202.972656 C 206.71875 203.308594 207.226562 203.5625 207.726562 203.898438 C 215.855469 194.199219 223.902344 184.503906 232.117188 174.644531 C 245.695312 187.183594 258.941406 199.382812 272.183594 211.664062 C 272.605469 211.417969 273.023438 211.164062 273.441406 210.914062 C 272.433594 207.488281 271.429688 203.980469 270.171875 199.800781 C 288.859375 205.148438 306.714844 210.246094 324.570312 215.425781 C 324.652344 214.761719 324.902344 214.171875 325.15625 213.589844 "/></g><g style="fill:#000000;fill-opacity:1;"><g transform="translate(49.313336, 234.225298)"><path style="stroke:none" d="M 23.90625 0 L 17.796875 0 L 8.578125 -12.875 L 8.578125 0 L 3.203125 0 L 3.203125 -25.390625 L 8.578125 -25.390625 L 8.578125 -13.09375 L 17.6875 -25.390625 L 23.421875 -25.390625 L 14.15625 -13.203125 Z M 23.90625 0 "/></g></g><g style="fill:#000000;fill-opacity:1;"><g transform="translate(73.218659, 234.225298)"><path style="stroke:none" d="M 17.828125 0 L 3.203125 0 L 3.203125 -25.390625 L 17.828125 -25.390625 L 17.828125 -20.984375 L 8.578125 -20.984375 L 8.578125 -15.40625 L 17.1875 -15.40625 L 17.1875 -11 L 8.578125 -11 L 8.578125 -4.453125 L 17.828125 -4.453125 Z M 17.828125 0 "/></g></g><g style="fill:#000000;fill-opacity:1;"><g transform="translate(93.145562, 234.225298)"><path style="stroke:none" d="M 8.578125 -13.453125 L 10.359375 -13.453125 C 12.015625 -13.453125 13.253906 -13.773438 14.078125 -14.421875 C 14.898438 -15.078125 15.3125 -16.03125 15.3125 -17.28125 C 15.3125 -18.539062 14.960938 -19.472656 14.265625 -20.078125 C 13.578125 -20.679688 12.5 -20.984375 11.03125 -20.984375 L 8.578125 -20.984375 Z M 20.75 -17.46875 C 20.75 -14.738281 19.894531 -12.648438 18.1875 -11.203125 C 16.476562 -9.753906 14.046875 -9.03125 10.890625 -9.03125 L 8.578125 -9.03125 L 8.578125 0 L 3.203125 0 L 3.203125 -25.390625 L 11.3125 -25.390625 C 14.394531 -25.390625 16.738281 -24.726562 18.34375 -23.40625 C 19.945312 -22.082031 20.75 -20.101562 20.75 -17.46875 Z M 20.75 -17.46875 "/></g></g><g style="fill:#000000;fill-opacity:1;"><g transform="translate(115.487309, 234.225298)"><path style="stroke:none" d="M 13.953125 0 L 7.828125 -19.921875 L 7.671875 -19.921875 C 7.898438 -15.867188 8.015625 -13.164062 8.015625 -11.8125 L 8.015625 0 L 3.203125 0 L 3.203125 -25.390625 L 10.53125 -25.390625 L 16.53125 -5.96875 L 16.640625 -5.96875 L 23.015625 -25.390625 L 30.34375 -25.390625 L 30.34375 0 L 25.328125 0 L 25.328125 -12.015625 C 25.328125 -12.585938 25.332031 -13.242188 25.34375 -13.984375 C 25.363281 -14.722656 25.445312 -16.691406 25.59375 -19.890625 L 25.4375 -19.890625 L 18.890625 0 Z M 13.953125 0 "/></g></g><g style="fill:#000000;fill-opacity:1;"><g transform="translate(149.034686, 234.225298)"><path style="stroke:none" d="M 17.828125 0 L 3.203125 0 L 3.203125 -25.390625 L 17.828125 -25.390625 L 17.828125 -20.984375 L 8.578125 -20.984375 L 8.578125 -15.40625 L 17.1875 -15.40625 L 17.1875 -11 L 8.578125 -11 L 8.578125 -4.453125 L 17.828125 -4.453125 Z M 17.828125 0 "/></g></g><g style="fill:#000000;fill-opacity:1;"><g transform="translate(168.961589, 234.225298)"><path style="stroke:none" d="M 1.0625 -7.359375 L 1.0625 -11.703125 L 10.390625 -11.703125 L 10.390625 -7.359375 Z M 1.0625 -7.359375 "/></g></g><g style="fill:#000000;fill-opacity:1;"><g transform="translate(180.410441, 234.225298)"><path style="stroke:none" d="M 13 0 L 7.609375 0 L 7.609375 -20.921875 L 0.71875 -20.921875 L 0.71875 -25.390625 L 19.890625 -25.390625 L 19.890625 -20.921875 L 13 -20.921875 Z M 13 0 "/></g></g><g style="fill:#000000;fill-opacity:1;"><g transform="translate(201.014884, 234.225298)"><path style="stroke:none" d="M 26.25 -12.734375 C 26.25 -8.523438 25.207031 -5.289062 23.125 -3.03125 C 21.039062 -0.78125 18.050781 0.34375 14.15625 0.34375 C 10.269531 0.34375 7.28125 -0.78125 5.1875 -3.03125 C 3.101562 -5.289062 2.0625 -8.535156 2.0625 -12.765625 C 2.0625 -16.992188 3.109375 -20.222656 5.203125 -22.453125 C 7.296875 -24.679688 10.289062 -25.796875 14.1875 -25.796875 C 18.09375 -25.796875 21.078125 -24.671875 23.140625 -22.421875 C 25.210938 -20.179688 26.25 -16.953125 26.25 -12.734375 Z M 7.71875 -12.734375 C 7.71875 -9.898438 8.253906 -7.765625 9.328125 -6.328125 C 10.398438 -4.890625 12.007812 -4.171875 14.15625 -4.171875 C 18.457031 -4.171875 20.609375 -7.023438 20.609375 -12.734375 C 20.609375 -18.453125 18.46875 -21.3125 14.1875 -21.3125 C 12.050781 -21.3125 10.4375 -20.585938 9.34375 -19.140625 C 8.257812 -17.703125 7.71875 -15.566406 7.71875 -12.734375 Z M 7.71875 -12.734375 "/></g></g><g style="fill:#000000;fill-opacity:1;"><g transform="translate(229.332962, 234.225298)"><path style="stroke:none" d="M 26.25 -12.734375 C 26.25 -8.523438 25.207031 -5.289062 23.125 -3.03125 C 21.039062 -0.78125 18.050781 0.34375 14.15625 0.34375 C 10.269531 0.34375 7.28125 -0.78125 5.1875 -3.03125 C 3.101562 -5.289062 2.0625 -8.535156 2.0625 -12.765625 C 2.0625 -16.992188 3.109375 -20.222656 5.203125 -22.453125 C 7.296875 -24.679688 10.289062 -25.796875 14.1875 -25.796875 C 18.09375 -25.796875 21.078125 -24.671875 23.140625 -22.421875 C 25.210938 -20.179688 26.25 -16.953125 26.25 -12.734375 Z M 7.71875 -12.734375 C 7.71875 -9.898438 8.253906 -7.765625 9.328125 -6.328125 C 10.398438 -4.890625 12.007812 -4.171875 14.15625 -4.171875 C 18.457031 -4.171875 20.609375 -7.023438 20.609375 -12.734375 C 20.609375 -18.453125 18.46875 -21.3125 14.1875 -21.3125 C 12.050781 -21.3125 10.4375 -20.585938 9.34375 -19.140625 C 8.257812 -17.703125 7.71875 -15.566406 7.71875 -12.734375 Z M 7.71875 -12.734375 "/></g></g></g></svg>